<svg xmlns="http://www.w3.org/2000/svg" viewBox="0 0 256.09 256.09"><defs><style>.cls-1{fill:#ddd;}</style></defs><g id="Шар_2" data-name="Шар 2"><g id="Шар_5" data-name="Шар 5"><rect width="256.09" height="256.09" rx="34.47"/><path class="cls-1" d="M160,212H96.14a50.46,50.46,0,0,1-50.4-50.39V97.78a50.46,50.46,0,0,1,50.4-50.4H160a50.45,50.45,0,0,1,50.39,50.4v63.81A50.45,50.45,0,0,1,160,212ZM96.14,59.71A38.12,38.12,0,0,0,58.07,97.78v63.81a38.11,38.11,0,0,0,38.07,38.06H160A38.11,38.11,0,0,0,198,161.59V97.78A38.12,38.12,0,0,0,160,59.71Z"/><path class="cls-1" d="M128,171.32a41.64,41.64,0,1,1,41.64-41.64A41.68,41.68,0,0,1,128,171.32Zm0-70.65a29,29,0,1,0,29,29A29,29,0,0,0,128,100.67Z"/><path class="cls-1" d="M185.05,83.52a10.84,10.84,0,1,1-10.84-10.84A10.85,10.85,0,0,1,185.05,83.52Z"/></g></g></svg>