<svg xmlns="http://www.w3.org/2000/svg" viewBox="0 0 111.65 96.85"><defs><style>.cls-1,.cls-2,.cls-3,.cls-4{fill:none;stroke:#fff;}.cls-1,.cls-3{stroke-miterlimit:10;}.cls-1,.cls-2{stroke-width:2px;}.cls-2,.cls-4{stroke-linecap:round;stroke-linejoin:round;}</style></defs><g id="Шар_2" data-name="Шар 2"><g id="Шар_1-2" data-name="Шар 1"><path class="cls-1" d="M20.79,74l-4.25,1.74a3.05,3.05,0,0,1-4-1.65l-.82-2L5,55.63,4.25,53.8A3,3,0,0,1,5.9,49.85l4.26-1.76a3.06,3.06,0,0,1,4,1.67l8.34,20.29c0,.11.07.24.09.35A3,3,0,0,1,20.79,74Z"/><line class="cls-1" x1="51.3" y1="20.94" x2="13.73" y2="49.08"/><path class="cls-1" d="M5,55.63,3.32,56.88a5.77,5.77,0,0,0-1.89,6.8l2.08,5.17A5.82,5.82,0,0,0,9.79,72.4l2-.3"/><polyline class="cls-1" points="22.55 70.4 24.75 70.06 37.08 68.12 67.15 63.39"/><path class="cls-1" d="M88.74,67.56a8.78,8.78,0,0,1-4.16,3.59c-8,3.14-19.79-7.62-27.17-24.33-.41-1-.82-1.93-1.22-2.94q-1.06-2.72-1.9-5.42c-5-16.31-3.46-30.89,4.15-33.89a8.61,8.61,0,0,1,5.31-.23c-3.82,5.94-3.91,17.6,0,30.3.56,1.8,1.19,3.61,1.91,5.42.52,1.31,1,2.58,1.63,3.82C73.15,56.73,81.58,65.86,88.74,67.56Z"/><path class="cls-1" d="M88.74,67.56c-7.16-1.7-15.59-10.83-21.44-23.68-.58-1.24-1.11-2.51-1.63-3.82-.72-1.81-1.35-3.62-1.91-5.42-3.92-12.7-3.83-24.36,0-30.3C71.59,6.21,81,17,86.8,31.86S93.1,60.78,88.74,67.56Z"/><path class="cls-1" d="M88.74,67.56c-7.16-1.7-15.59-10.83-21.44-23.68-.58-1.24-1.11-2.51-1.63-3.82-.72-1.81-1.35-3.62-1.91-5.42-3.92-12.7-3.83-24.36,0-30.3C71.59,6.21,81,17,86.8,31.86S93.1,60.78,88.74,67.56Z"/><path class="cls-1" d="M53.43,92.16l-3.52,3a3,3,0,0,1-4.27-.38L24.76,70.06l12.33-1.94,16.7,19.77A3,3,0,0,1,53.43,92.16Z"/><path class="cls-1" d="M67.3,43.88c-.58-1.24-1.11-2.51-1.63-3.82-.72-1.81-1.35-3.62-1.91-5.42,6.46-1.72,11.88-1.43,12.67.86S73.29,41.26,67.3,43.88Z"/><path class="cls-2" d="M44.49,2.76H4.37v0S44.49,2.39,44.49,2.76Z"/><circle class="cls-3" cx="10.83" cy="9.32" r="2.74" transform="translate(-1.35 1.86) rotate(-9.22)"/><circle class="cls-3" cx="18.96" cy="9.32" r="2.74" transform="translate(-1.25 3.16) rotate(-9.22)"/><circle class="cls-3" cx="27.08" cy="9.32" r="2.74" transform="translate(-1.14 4.46) rotate(-9.22)"/><line class="cls-4" x1="81.87" y1="8.02" x2="88.55" y2="0.5"/><line class="cls-4" x1="88.91" y1="17.21" x2="97.27" y2="11.6"/><line class="cls-4" x1="96.57" y1="25.99" x2="105.76" y2="21.9"/><line class="cls-4" x1="101.23" y1="36.55" x2="111.15" y2="34.89"/><line class="cls-4" x1="100.25" y1="47.77" x2="110.05" y2="50.04"/></g></g></svg>