<svg xmlns="http://www.w3.org/2000/svg" viewBox="0 0 30 30"><defs><style>.cls-1{fill:#fff;}.cls-2{fill:none;stroke:#fff;stroke-linecap:round;stroke-linejoin:round;}</style></defs><g id="Шар_2" data-name="Шар 2"><g id="Шар_1-2" data-name="Шар 1"><path class="cls-1" d="M15,1A14,14,0,1,1,1,15,14,14,0,0,1,15,1m0-1A15,15,0,1,0,30,15,15,15,0,0,0,15,0Z"/><line class="cls-2" x1="10.11" y1="16.41" x2="11.76" y2="20.88"/><polygon class="cls-2" points="11.95 17.24 11.79 20.93 14.16 18.92 11.95 17.24"/><path class="cls-2" d="M21.29,8.45,6.2,14.18a.49.49,0,0,0,0,.92l3.9,1.31L19,11.09l-7,6.15,5.47,4.15A1,1,0,0,0,19,20.84L21.94,9A.49.49,0,0,0,21.29,8.45Z"/></g></g></svg>