<svg xmlns="http://www.w3.org/2000/svg" viewBox="0 0 256.09 256.09"><defs><style>.cls-1{fill:#ddd;}</style></defs><g id="Шар_2" data-name="Шар 2"><g id="OBJECTS"><rect width="256.09" height="256.09" rx="34.47"/><path class="cls-1" d="M168.69,126.83a96.66,96.66,0,0,1-8.24,35.29,86.44,86.44,0,0,1,18.19,11.1,73,73,0,0,0,19.89-46.39Z"/><path class="cls-1" d="M149.31,166.43a78,78,0,0,0-20.38-3.85v28.74A90.68,90.68,0,0,0,149.31,166.43Z"/><path class="cls-1" d="M136.26,195.61a73.33,73.33,0,0,0,36.46-16.76,77.6,77.6,0,0,0-15.82-9.48A98.85,98.85,0,0,1,136.26,195.61Z"/><path class="cls-1" d="M169.54,64.21A73.64,73.64,0,0,0,136.3,50a99,99,0,0,1,18.42,22.26A78,78,0,0,0,169.54,64.21Z"/><path class="cls-1" d="M128.93,126.83V154.5a85.68,85.68,0,0,1,24,4.64,88.71,88.71,0,0,0,7.67-32.31Z"/><path class="cls-1" d="M128.93,118.76h31.68A90,90,0,0,0,151,82.19a86,86,0,0,1-22.08,4Z"/><path class="cls-1" d="M198.53,118.76a73.79,73.79,0,0,0-22.66-49.14,86.16,86.16,0,0,1-17.26,9.75,98.28,98.28,0,0,1,10.08,39.39Z"/><path class="cls-1" d="M128.93,54.26V78.13a78.3,78.3,0,0,0,18-3.14A91.27,91.27,0,0,0,128.93,54.26Z"/><path class="cls-1" d="M89.34,162.12a96.45,96.45,0,0,1-8.24-35.29H51.26a73,73,0,0,0,19.89,46.39A85.93,85.93,0,0,1,89.34,162.12Z"/><path class="cls-1" d="M81.1,118.76A98.27,98.27,0,0,1,91.17,79.37a85.81,85.81,0,0,1-17.25-9.75,73.75,73.75,0,0,0-22.66,49.14Z"/><path class="cls-1" d="M102.85,75a78.21,78.21,0,0,0,18,3.14V54.26A91.27,91.27,0,0,0,102.85,75Z"/><path class="cls-1" d="M120.86,191.32V162.58a78,78,0,0,0-20.38,3.85A90.5,90.5,0,0,0,120.86,191.32Z"/><path class="cls-1" d="M120.86,126.83H89.17a88.9,88.9,0,0,0,7.66,32.31,85.67,85.67,0,0,1,24-4.64Z"/><path class="cls-1" d="M77.07,178.85a73.29,73.29,0,0,0,36.45,16.76,98.85,98.85,0,0,1-20.64-26.24A77.8,77.8,0,0,0,77.07,178.85Z"/><path class="cls-1" d="M120.86,86.21a85.85,85.85,0,0,1-22.08-4,90.15,90.15,0,0,0-9.61,36.57h31.69Z"/><path class="cls-1" d="M113.49,50A73.64,73.64,0,0,0,80.25,64.21a77.9,77.9,0,0,0,14.81,8.05A99.26,99.26,0,0,1,113.49,50Z"/><path class="cls-1" d="M204.08,211.75a5,5,0,0,1-4.38-2.59l-7.64-13.83-6.38,3.52a5,5,0,0,1-7.38-3.75l-6-47a5,5,0,0,1,8.13-4.49L217,173.73a5,5,0,0,1-.76,8.24l-6.39,3.52,7.64,13.84a5,5,0,0,1-2,6.79l-9.06,5A4.9,4.9,0,0,1,204.08,211.75ZM194,183.53a5,5,0,0,1,4.37,2.59L206,200l.31-.17L198.71,186a5,5,0,0,1,2-6.79l4.31-2.39-21.14-17.4,3.45,27.17,4.31-2.38A4.94,4.94,0,0,1,194,183.53Z"/><polygon points="213.85 177.59 177.31 147.51 183.26 194.47 194.03 188.53 204.07 206.75 213.14 201.74 203.09 183.53 213.85 177.59"/></g></g></svg>