<svg width="100" height="100" viewBox="0 0 100 100" fill="none" xmlns="http://www.w3.org/2000/svg">
<path d="M50 4C24.634 4 4 24.634 4 50C4 75.366 24.634 96 50 96C75.366 96 96 75.366 96 50C96 40.88 93.3206 32.3787 88.7266 25.2227L85.9883 28.457C89.7783 34.765 92 42.12 92 50C92 73.158 73.158 92 50 92C26.842 92 8 73.158 8 50C8 26.842 26.842 8 50 8C60.886 8 70.7878 12.1995 78.2578 19.0195L80.875 15.9297C72.705 8.5197 61.87 4 50 4ZM86.4727 15.5078L47.8281 61.1094L31.5625 45.9375L28.8359 48.8633L48.168 66.8945L89.5274 18.0938L86.4727 15.5078Z" fill="white"/>
</svg>
