<svg xmlns="http://www.w3.org/2000/svg" viewBox="0 0 107.25 87.69"><defs><style>.cls-1{fill:none;stroke:#fff;stroke-linecap:round;stroke-linejoin:round;stroke-width:2.7px;}</style></defs><g id="Шар_2" data-name="Шар 2"><g id="Шар_1-2" data-name="Шар 1"><path class="cls-1" d="M75.47,72a22.47,22.47,0,0,1-2.08,9.47,46,46,0,0,1-41,0A22.24,22.24,0,0,1,30.3,72a22.59,22.59,0,0,1,45.17,0Z"/><ellipse class="cls-1" cx="53.32" cy="29.36" rx="9.73" ry="11.89"/><path class="cls-1" d="M103.42,77.72A54.35,54.35,0,0,1,79,83.5a55.3,55.3,0,0,1-8.19-.61c1-.41,2.06-.88,3-1.38,3.31-7.08,3-16.39-3.27-24.8a11.25,11.25,0,0,0-3-2.75,27.27,27.27,0,0,0-9.88-4c8-10.31,23.41-14.61,38.27-5.1a14.35,14.35,0,0,1,3.53,3.29C107,58.2,107.36,69.27,103.42,77.72Z"/><ellipse class="cls-1" cx="78.96" cy="15.53" rx="11.6" ry="14.18"/><path class="cls-1" d="M30.73,72a22.24,22.24,0,0,0,2.1,9.49c1,.52,2.11,1,3.19,1.43a55,55,0,0,1-7.76.54,54.39,54.39,0,0,1-24.4-5.75A26.25,26.25,0,0,1,1.35,66.43c0-20.27,22.5-35.29,43.9-21.58a13.76,13.76,0,0,1,3.55,3.29c.41.55.79,1.09,1.15,1.63A22.53,22.53,0,0,0,30.73,72Z"/><ellipse class="cls-1" cx="28.27" cy="15.53" rx="11.6" ry="14.18"/></g></g></svg>