<svg xmlns="http://www.w3.org/2000/svg" viewBox="0 0 120.95 102.33"><defs><style>.cls-1{fill:none;stroke:#fff;stroke-miterlimit:10;stroke-width:2.6px;}</style></defs><g id="Шар_2" data-name="Шар 2"><g id="Шар_1-2" data-name="Шар 1"><path class="cls-1" d="M77.62,11.64V34.32H53.68A10.35,10.35,0,0,0,43.33,44.67V55.21a30.17,30.17,0,0,0-11.6,2.87L11.21,67.81A1.87,1.87,0,0,1,8.54,66l.53-7.13a5.61,5.61,0,0,0-2.81-5.18,10.33,10.33,0,0,1-5-8.84V11.64A10.34,10.34,0,0,1,11.65,1.3H67.28A10.34,10.34,0,0,1,77.62,11.64Z"/><path class="cls-1" d="M119.65,44.67V77.86a10.32,10.32,0,0,1-5,8.84,5.62,5.62,0,0,0-2.81,5.18l.53,7.13a1.87,1.87,0,0,1-2.68,1.83L89.22,91.11a30.31,30.31,0,0,0-12.9-2.9H53.68A10.35,10.35,0,0,1,43.33,77.86V44.67A10.35,10.35,0,0,1,53.68,34.32H109.3A10.35,10.35,0,0,1,119.65,44.67Z"/></g></g></svg>