<svg xmlns="http://www.w3.org/2000/svg" viewBox="0 0 81.87 142.61"><defs><style>.cls-1,.cls-2{fill:none;stroke:#fff;stroke-miterlimit:10;}.cls-1{stroke-width:2.6px;}.cls-2{stroke-width:2px;}.cls-3{fill:#fff;}</style></defs><g id="Шар_2" data-name="Шар 2"><g id="Шар_1-2" data-name="Шар 1"><path class="cls-1" d="M68.42,120a33.53,33.53,0,0,1-3.09,14.12,68.2,68.2,0,0,1-60.9,0A33.09,33.09,0,0,1,1.3,120a33.56,33.56,0,1,1,67.12,0Z"/><ellipse class="cls-1" cx="35.51" cy="56.38" rx="14.45" ry="17.73"/><polygon class="cls-2" points="80.86 25.41 80.86 30.8 71.98 30.8 71.98 39.68 66.61 39.68 66.61 30.8 57.71 30.8 57.71 25.41 66.61 25.41 66.61 16.52 71.98 16.52 71.98 25.41 80.86 25.41"/><rect class="cls-3" x="55.06" width="3.91" height="16.82"/><rect class="cls-3" x="55.06" width="3.91" height="16.82" transform="translate(65.42 -48.6) rotate(90)"/><rect class="cls-3" x="48.37" y="16" width="2.4" height="10.32"/><rect class="cls-3" x="48.37" y="16" width="2.4" height="10.32" transform="translate(70.73 -28.41) rotate(90)"/></g></g></svg>