<svg xmlns="http://www.w3.org/2000/svg" viewBox="0 0 122.66 122.66"><defs><style>.cls-1{fill:none;stroke:#fff;stroke-linecap:round;stroke-linejoin:round;stroke-width:2.6px;}</style></defs><g id="Шар_2" data-name="Шар 2"><g id="Шар_1-2" data-name="Шар 1"><path class="cls-1" d="M70.79,13.22a40.7,40.7,0,0,1,0,57.57,39.83,39.83,0,0,1-5.05,4.29,40.71,40.71,0,1,1,5.05-61.86Z"/><path class="cls-1" d="M97.45,82.27l20.78,20.79a10.65,10.65,0,0,1,0,15.08l-.09.09a10.65,10.65,0,0,1-15.08,0L82.27,97.44a10.65,10.65,0,0,1-3-8.87,10.52,10.52,0,0,1,3-6.21l.09-.09a10.55,10.55,0,0,1,6.21-3A10.67,10.67,0,0,1,97.45,82.27Z"/><path class="cls-1" d="M75.08,65.74,88.57,79.22a10.66,10.66,0,0,0-6.21,3l-.09.09a10.57,10.57,0,0,0-3,6.22L65.74,75.08a39.83,39.83,0,0,0,5.05-4.29A40.67,40.67,0,0,0,75.08,65.74Z"/><polyline class="cls-1" points="12.67 51.34 25.59 38.67 48.5 61.58 95.29 14.05"/><polyline class="cls-1" points="89.52 13.75 95.58 13.75 95.58 19.85"/></g></g></svg>